<svg width="36" height="36" viewBox="0 0 36 36" fill="current" xmlns="http://www.w3.org/2000/svg">
<path d="M15.2103 8H9.57019C8.70304 8 8 8.70304 8 9.57019V15.2106C8 16.0774 8.70304 16.7805 9.57019 16.7805H15.2106C16.0777 16.7805 16.7805 16.0774 16.7805 15.2103V9.57019C16.7805 8.70304 16.0777 8 15.2103 8Z" fill="current"/>
<path d="M15.2103 19.2188H9.57019C8.70304 19.2188 8 19.9218 8 20.7889V26.4293C8 27.2962 8.70304 27.9992 9.57019 27.9992H15.2106C16.0777 27.9992 16.7805 27.2962 16.7805 26.429V20.7889C16.7805 19.9218 16.0777 19.2188 15.2103 19.2188Z" fill="current"/>
<path opacity="0.5" d="M26.4298 8H20.7897C19.9226 8 19.2195 8.70304 19.2195 9.57019V15.2106C19.2195 16.0774 19.9226 16.7805 20.7897 16.7805H26.4301C27.2973 16.7805 28 16.0774 28 15.2103V9.57019C28 8.70304 27.2973 8 26.4298 8Z" fill="current"/>
<path d="M26.43 19.2188H20.7899C19.9228 19.2188 19.2197 19.9218 19.2197 20.7889V26.4293C19.2197 27.2962 19.9228 27.9992 20.7899 27.9992H26.4303C27.2975 27.9992 28.0002 27.2962 28.0002 26.429V20.7889C28.0002 19.9218 27.2975 19.2188 26.43 19.2188Z" fill="current"/>
</svg>
